<?xml version="1.0" standalone="no"?>
<!DOCTYPE svg PUBLIC "-//W3C//DTD SVG 20010904//EN"
 "http://www.w3.org/TR/2001/REC-SVG-20010904/DTD/svg10.dtd">
<svg version="1.0" xmlns="http://www.w3.org/2000/svg"
 width="905.000000pt" height="504.000000pt" viewBox="0 0 905.000000 504.000000"
 preserveAspectRatio="xMidYMid meet">

<g transform="translate(0.000000,504.000000) scale(0.100000,-0.100000)"
fill="#000000" stroke="none">
<path d="M5358 3940 c-10 -9 -18 -20 -18 -24 0 -14 -94 -157 -129 -197 -18
-22 -39 -39 -46 -39 -13 0 -26 -23 -30 -51 -1 -8 -17 -36 -36 -61 -47 -63 -96
-79 -206 -69 -94 9 -113 19 -195 103 -41 40 -53 58 -40 58 122 3 272 63 272
110 0 54 -76 93 -216 109 -171 20 -231 21 -245 5 -6 -8 -24 -14 -39 -14 -15 0
-33 -6 -39 -14 -17 -21 9 -37 48 -30 l32 7 0 -169 c-1 -221 0 -224 15 -224 23
0 28 23 26 123 -3 88 -1 99 13 93 9 -3 25 -6 34 -6 10 0 44 -25 77 -55 107
-101 168 -133 279 -148 11 -2 24 -1 29 2 16 8 56 7 56 -1 0 -4 9 -8 20 -8 12
0 40 25 71 63 95 113 100 118 144 117 22 -1 79 2 126 6 l86 7 15 -44 c35 -103
106 -187 144 -172 12 5 11 11 -10 32 -32 34 -86 139 -86 168 0 18 8 23 55 33
36 7 55 16 55 26 0 10 -7 13 -26 8 -36 -9 -87 -9 -102 0 -7 4 -12 22 -12 41 0
19 -4 37 -10 40 -5 3 -10 17 -10 30 0 13 -4 27 -10 30 -5 3 -10 14 -10 24 0
24 -26 74 -47 93 -16 14 -20 14 -35 -2z m35 -121 c5 -19 12 -38 17 -44 7 -9
18 -49 26 -93 2 -9 -7 -12 -24 -11 -15 2 -48 -1 -75 -5 -33 -6 -52 -5 -62 4
-8 6 -19 9 -25 5 -17 -11 -11 7 15 41 14 18 25 37 25 43 0 6 3 11 8 11 4 0 21
20 37 45 17 24 34 43 40 42 5 -2 13 -19 18 -38z m-593 5 c49 -17 80 -40 80
-60 0 -15 -54 -47 -63 -37 -4 3 -12 1 -19 -5 -17 -14 -176 -35 -197 -26 -26
12 -35 11 -58 -2 -21 -13 -21 -13 -20 63 2 73 3 77 27 84 41 10 201 0 250 -17z"/>
<path d="M3928 3928 c-41 -11 -52 -28 -34 -53 11 -15 18 -16 47 -6 44 14 97
13 189 -5 106 -21 190 -65 190 -100 0 -14 -60 -61 -60 -47 0 4 -4 2 -9 -6 -8
-12 -89 -46 -136 -56 -11 -2 -33 -7 -49 -11 l-29 -7 6 59 c3 32 8 83 11 112 5
49 4 52 -18 52 -29 0 -46 -36 -46 -99 0 -99 -10 -137 -39 -148 l-26 -10 28
-11 c23 -10 27 -17 27 -51 0 -44 27 -111 45 -111 6 0 20 7 31 15 18 14 18 16
2 28 -11 9 -19 33 -23 66 -6 59 -15 52 127 96 103 32 155 58 186 94 26 31 22
67 -11 90 -11 8 -28 22 -37 31 -10 10 -28 20 -41 23 -13 2 -60 14 -103 26 -44
12 -97 21 -118 21 -22 0 -47 4 -56 8 -9 5 -34 5 -54 0z"/>
<path d="M2970 3905 c-146 -28 -230 -71 -230 -117 0 -32 33 -78 60 -84 14 -3
34 -10 45 -15 17 -8 98 -30 210 -58 41 -11 115 -49 115 -60 0 -16 -30 -41 -58
-47 -15 -4 -32 -11 -39 -16 -7 -5 -26 -7 -44 -3 -18 4 -34 3 -38 -3 -10 -15
-130 -22 -196 -11 -33 6 -72 11 -86 12 -14 1 -34 8 -43 16 -16 13 -15 16 4 36
26 28 13 38 -29 22 -54 -20 -38 -67 34 -102 35 -18 61 -20 210 -20 180 1 228
9 286 48 44 30 53 81 17 109 -40 32 -109 60 -175 70 -34 6 -63 15 -63 20 0 5
-5 6 -10 3 -6 -4 -16 -2 -23 3 -7 6 -31 15 -54 21 -22 6 -52 20 -64 30 -23 19
-23 20 -5 40 46 51 234 79 312 46 37 -15 64 -11 64 10 0 19 -21 33 -65 43 -22
5 -47 12 -55 14 -8 3 -44 0 -80 -7z"/>
<path d="M3352 3870 c-4 -10 -8 -88 -10 -172 -4 -252 19 -289 134 -208 33 23
94 72 136 110 42 39 79 70 82 70 3 0 6 -17 6 -38 0 -84 51 -193 103 -221 22
-12 34 -12 67 -2 56 17 54 41 -4 41 -48 0 -71 15 -87 58 -34 89 -42 255 -15
296 22 34 20 52 -6 70 -27 19 -32 15 -48 -49 -21 -81 -37 -106 -125 -190 -88
-85 -179 -143 -191 -123 -10 16 -11 134 -3 253 7 96 2 125 -23 125 -5 0 -12
-9 -16 -20z"/>
<path d="M1085 3530 c4 -6 -11 -10 -36 -10 -38 0 -41 -2 -25 -13 16 -11 12
-15 -37 -30 -100 -31 -217 -122 -217 -167 0 -10 11 -46 24 -81 13 -36 27 -86
31 -112 l7 -47 -51 35 c-34 22 -70 37 -102 41 -41 6 -50 11 -55 31 -10 36 -38
47 -75 27 -29 -15 -33 -15 -41 0 -5 9 -22 16 -39 16 -17 0 -28 -4 -25 -9 3 -5
-1 -11 -9 -15 -8 -3 -15 -11 -15 -18 0 -10 2 -10 9 1 7 11 11 10 20 -5 9 -17
10 -16 11 10 0 24 2 27 15 16 12 -10 15 -10 15 1 1 9 4 8 11 -4 13 -23 5 -49
-22 -65 -25 -16 -59 -7 -60 16 0 11 -3 12 -6 5 -2 -7 -22 -13 -43 -13 -46 0
-64 -19 -57 -62 3 -24 -1 -40 -17 -58 l-21 -25 23 20 c19 16 26 17 42 7 35
-21 71 -14 112 24 27 24 45 33 56 29 46 -18 80 -17 101 4 11 11 21 31 21 42 0
20 4 21 45 16 25 -4 59 -14 76 -23 51 -26 117 -93 129 -130 15 -43 45 -44 45
-1 -1 18 5 27 15 28 9 0 6 4 -7 9 -13 5 -23 14 -23 20 0 5 -7 10 -15 10 -8 0
-15 6 -15 14 0 7 -6 26 -14 42 -11 20 -12 33 -4 47 10 19 11 18 35 -9 21 -25
23 -26 18 -7 -4 14 0 25 12 33 17 11 16 11 -2 6 l-20 -6 20 16 c20 16 20 16
-2 10 -17 -5 -21 -3 -18 11 2 10 4 24 4 32 1 10 4 11 14 2 11 -8 16 -5 26 15
6 14 9 30 6 35 -10 15 -35 10 -35 -7 0 -8 -5 -12 -10 -9 -8 5 -7 11 1 21 14
17 41 18 57 2 8 -8 12 -8 12 -1 0 20 -29 35 -55 29 -30 -8 -47 -43 -33 -68 5
-11 5 -18 -1 -18 -10 0 -21 24 -21 46 0 42 83 72 110 39 11 -13 16 -13 44 1
17 9 39 23 49 32 16 14 19 14 31 -4 13 -17 26 -19 115 -16 136 4 145 -2 137
-81 -3 -34 -7 -67 -8 -74 -1 -6 -8 -9 -17 -5 -9 3 -13 1 -8 -3 4 -5 17 -9 29
-10 12 -1 25 -11 29 -23 6 -15 5 -21 -4 -19 -6 1 -16 -8 -22 -20 -5 -13 -13
-23 -17 -23 -12 0 -9 35 4 48 9 9 9 12 0 12 -17 0 -26 -48 -14 -75 13 -28 -10
-103 -39 -125 -17 -14 -5 -15 120 -15 134 0 137 0 110 17 -48 29 -62 60 -54
119 5 34 4 49 -3 45 -6 -3 -8 -16 -4 -28 3 -14 2 -19 -6 -14 -19 11 -15 56 4
56 14 0 15 6 8 33 -12 49 -8 118 7 128 8 5 22 9 32 9 10 0 30 8 44 17 15 10
37 16 50 15 13 -2 37 4 54 12 34 17 40 14 70 -36 5 -10 19 -18 30 -18 12 0 27
-12 37 -31 41 -75 79 -98 109 -68 16 16 43 4 43 -18 0 -10 -7 -26 -15 -36 -7
-11 -11 -25 -8 -33 3 -8 0 -14 -6 -14 -6 0 -8 -7 -5 -15 4 -8 2 -15 -4 -15 -6
0 -13 6 -15 13 -3 6 -6 -3 -6 -22 -1 -25 -11 -43 -43 -75 -23 -22 -41 -45 -40
-49 1 -5 -2 -6 -8 -2 -18 11 -32 -5 -18 -23 11 -13 11 -14 -2 -7 -8 5 -47 9
-87 9 -40 1 -65 -2 -55 -6 9 -4 39 -7 65 -7 26 -1 63 -8 83 -16 l35 -14 -6
-113 c-10 -204 -25 -581 -25 -645 l0 -63 -478 0 -479 0 -11 108 c-16 147 -15
169 8 192 24 24 26 53 5 70 -17 14 -45 67 -45 86 0 7 -4 16 -10 19 -6 3 -7 -1
-4 -9 6 -15 -11 -21 -56 -18 -25 1 -48 -17 -71 -58 -12 -21 -29 -40 -38 -42
-11 -2 -7 -8 13 -21 27 -18 27 -18 17 1 -8 15 -7 23 2 30 9 7 17 3 31 -16 11
-15 13 -21 6 -15 -21 19 -29 16 -26 -9 4 -33 18 -61 25 -51 3 4 15 16 27 25
19 17 22 17 58 -2 l38 -19 -42 -11 c-23 -6 -51 -12 -61 -13 -14 -1 -18 -10
-17 -48 0 -49 -19 -95 -58 -142 -13 -16 -24 -41 -24 -57 0 -16 -11 -41 -24
-57 -24 -27 -26 -27 -52 -13 -15 8 -30 22 -32 30 -4 11 1 10 17 -5 33 -29 55
-10 59 51 l2 49 -20 -31 c-41 -63 -137 -71 -207 -18 l-38 29 33 3 c35 4 67 39
57 64 -4 9 -16 20 -29 26 -16 7 -25 22 -29 49 -14 82 -9 103 32 144 21 22 48
39 60 39 12 0 20 4 17 9 -4 5 -18 5 -35 -2 -35 -13 -61 3 -61 38 0 61 -81 69
-105 11 -7 -17 -23 -40 -34 -50 -25 -23 -27 -49 -5 -70 18 -19 75 -21 92 -4
15 15 19 3 26 -83 6 -63 5 -66 -19 -77 -13 -6 -27 -23 -31 -37 -13 -50 90
-135 165 -135 21 0 44 -9 63 -25 16 -14 37 -25 47 -25 27 0 52 34 58 79 5 34
36 83 46 70 2 -2 11 -36 19 -76 l15 -72 -28 -10 c-37 -13 -53 -44 -38 -73 7
-13 10 -24 8 -25 -2 -1 0 -5 5 -10 5 -5 6 -2 1 6 -6 10 -1 12 23 6 17 -3 44
-7 61 -7 17 -1 31 -3 31 -6 0 -12 -53 -82 -61 -82 -5 0 -9 -5 -9 -10 0 -6 -8
-20 -19 -31 -20 -22 -17 -67 5 -76 8 -3 12 -9 9 -14 -3 -4 4 -6 16 -4 12 3 26
2 32 -2 5 -3 24 -7 41 -8 17 -2 74 -8 126 -15 52 -6 138 -11 190 -12 61 0 88
-3 75 -8 -17 -7 -17 -9 -2 -9 9 -1 17 -6 17 -11 0 -6 -32 -10 -81 -9 -44 1
-83 -2 -86 -5 -9 -9 505 -6 722 4 137 6 209 14 260 29 73 21 110 50 100 81 -4
13 6 20 53 33 94 26 120 79 51 107 l-30 13 38 21 c26 15 39 29 41 48 6 49 -72
87 -231 111 l-78 11 5 31 c15 82 28 269 19 272 -26 9 -42 31 -48 66 l-7 37 63
0 c70 0 110 16 141 55 11 14 26 25 33 25 8 0 23 13 35 30 19 27 50 45 35 20
-14 -23 47 -8 77 19 18 15 38 26 44 24 16 -5 44 58 51 115 4 40 1 58 -22 102
-32 63 -108 141 -164 167 -37 17 -53 33 -32 33 5 0 14 14 21 31 26 61 -19 139
-81 139 -26 0 -27 2 -22 40 4 29 1 45 -11 59 -13 14 -14 24 -7 44 20 51 -17
116 -65 117 -11 0 -29 9 -39 20 -10 11 -30 20 -45 20 -16 0 -36 11 -51 26 -13
15 -38 33 -56 40 -43 18 -125 18 -170 -1 -19 -8 -51 -15 -70 -15 -40 0 -67
-12 -104 -47 -23 -21 -28 -22 -38 -9 -7 8 -28 20 -46 26 -22 7 -32 16 -29 25
7 18 -69 30 -131 21 -33 -5 -51 -3 -67 8 -25 18 -63 22 -53 6z m351 -272 c-9
-12 -20 -22 -24 -20 -4 1 -7 -4 -7 -10 0 -7 -6 -13 -14 -13 -8 0 -17 -9 -22
-20 -5 -15 -8 -16 -8 -4 -1 9 8 24 19 34 12 10 19 24 16 30 -2 6 5 11 18 11
16 -1 20 4 18 19 -3 15 -1 17 8 8 10 -9 9 -17 -4 -35z m-33 -188 c4 -17 0 -20
-29 -20 -39 0 -45 16 -11 30 32 13 34 12 40 -10z m620 -87 c-4 -10 -2 -14 4
-10 16 10 118 -18 165 -46 54 -31 119 -101 147 -156 21 -41 27 -66 14 -58 -5
3 -7 -16 -5 -42 3 -35 -1 -53 -15 -70 l-19 -24 4 36 c2 19 -1 38 -7 42 -8 5
-10 -1 -6 -18 4 -15 0 -37 -9 -55 -22 -43 -84 -85 -70 -47 7 18 6 18 -35 4
-19 -7 -36 -22 -41 -35 -7 -17 -17 -24 -35 -24 -14 0 -25 -6 -25 -13 0 -8 -12
-24 -26 -38 -23 -21 -36 -24 -120 -27 -52 -2 -102 -1 -112 4 -9 4 -19 7 -22 6
-6 -1 -2 241 5 284 7 38 24 54 95 84 30 12 64 29 75 38 l20 14 -20 -7 c-11 -4
-28 -8 -37 -9 -9 0 -14 -4 -12 -8 3 -4 -3 -8 -13 -8 -10 0 -33 -9 -51 -20 -38
-23 -52 -19 -52 16 0 17 8 27 26 34 19 8 25 16 21 30 -4 14 0 20 11 21 11 0
12 2 4 6 -18 7 -4 23 21 23 16 0 18 -3 8 -9 -8 -5 -9 -11 -3 -15 13 -8 27 12
36 47 6 26 5 27 -14 17 -11 -6 -20 -8 -20 -5 0 4 -12 -3 -26 -14 -15 -12 -36
-21 -48 -22 -19 0 -19 -1 -3 -8 17 -6 17 -8 3 -20 -21 -17 -39 -5 -26 18 5 10
8 20 6 22 -2 2 8 13 22 23 l27 20 -19 -23 -20 -22 25 9 c13 5 24 16 24 23 0
14 4 15 46 18 18 1 19 3 9 16 -15 18 1 20 19 3 11 -11 11 -9 2 10 -10 18 -9
22 3 22 8 0 18 -4 21 -10 12 -19 26 -10 20 13 l-6 22 20 -23 c11 -13 17 -30
14 -39z m-1797 -602 c0 -12 -5 -17 -15 -13 -9 3 -12 1 -7 -6 4 -7 13 -12 20
-12 7 0 13 -6 13 -14 0 -19 -35 -8 -40 13 -2 9 3 24 11 34 18 21 18 21 18 -2z
m1603 -37 c0 5 7 3 14 -3 16 -12 27 -5 27 18 0 11 -3 12 -8 5 -5 -9 -10 -8
-19 2 -8 8 -9 15 -3 19 6 3 10 1 10 -4 0 -6 5 -10 12 -8 6 1 14 -13 18 -30 4
-18 4 -30 -1 -28 -4 3 -21 7 -39 9 -40 5 -41 7 -33 47 l7 34 7 -35 c3 -19 7
-31 8 -26z m58 -50 c-3 -3 -12 -4 -19 -1 -8 3 -5 6 6 6 11 1 17 -2 13 -5z m43
-51 c0 -75 -17 -87 -22 -15 -2 45 0 62 10 62 8 0 12 -16 12 -47z m-41 18 c11
-7 12 -26 6 -97 -4 -49 -8 -94 -8 -101 -1 -26 -17 0 -17 28 0 39 -22 89 -49
113 -11 11 -21 30 -21 43 0 20 5 23 38 23 20 0 43 -4 51 -9z m-1169 -7 c0 -8
-19 -13 -24 -6 -3 5 1 9 9 9 8 0 15 -2 15 -3z m70 -28 c0 -13 -7 -29 -16 -36
-22 -19 -45 -79 -46 -122 0 -21 -4 -38 -9 -38 -5 0 -9 4 -9 9 0 5 -3 23 -7 41
-5 27 -3 32 8 26 8 -4 7 -1 -3 6 -9 8 -19 35 -23 60 l-7 47 48 15 c65 19 64
20 64 -8z m1127 -108 c-3 -7 -5 -2 -5 12 0 14 2 19 5 13 2 -7 2 -19 0 -25z
m-1607 2 c-6 -11 -13 -20 -15 -20 -3 0 -5 9 -5 20 0 11 7 20 15 20 13 0 14 -4
5 -20z m1597 -52 c-3 -7 -5 -2 -5 12 0 14 2 19 5 13 2 -7 2 -19 0 -25z m-1207
-53 c0 -5 -5 -3 -10 5 -5 8 -10 20 -10 25 0 6 5 3 10 -5 5 -8 10 -19 10 -25z
m-153 -2 c-3 -31 -19 -40 -36 -19 -10 12 -8 14 11 10 13 -2 17 -1 10 2 -10 5
-10 9 -1 20 16 19 18 18 16 -13z m873 -18 c0 -24 -2 -25 -74 -25 -40 0 -93 -3
-118 -6 -43 -6 -45 -5 -50 20 -3 14 -3 28 0 31 3 3 59 5 124 5 l118 0 0 -25z
m-677 0 c-3 -9 -8 -14 -10 -11 -3 3 -2 9 2 15 9 16 15 13 8 -4z m252 5 c-3 -5
-11 -10 -16 -10 -6 0 -7 5 -4 10 3 6 11 10 16 10 6 0 7 -4 4 -10z m593 -48
c-3 -54 -17 -47 -16 8 1 31 5 46 10 38 4 -7 7 -28 6 -46z m263 35 c-10 -9 -11
-8 -5 6 3 10 9 15 12 12 3 -3 0 -11 -7 -18z m-1150 -14 c13 -16 12 -17 -3 -4
-10 7 -18 15 -18 17 0 8 8 3 21 -13z m359 5 c0 -7 -5 -20 -11 -28 -9 -12 -10
-12 -5 4 4 11 1 23 -6 28 -10 6 -8 8 5 8 9 0 17 -6 17 -12z m403 -29 c28 -7
37 -15 35 -27 -3 -15 -25 -17 -196 -20 -165 -3 -192 -1 -192 12 0 8 5 18 12
22 32 20 282 30 341 13z m-755 -24 c-3 -3 -9 2 -12 12 -6 14 -5 15 5 6 7 -7
10 -15 7 -18z m1307 9 c13 -6 14 -9 3 -16 -9 -7 -6 -8 11 -4 46 10 90 -29 90
-79 0 -50 -40 -85 -98 -85 -35 0 -101 52 -101 79 0 24 45 65 61 56 8 -5 10 -4
5 3 -4 7 -1 12 6 12 7 0 2 9 -12 20 -24 19 -24 20 -3 20 12 0 29 -3 38 -6z
m-1331 -24 c3 -11 9 -29 12 -40 4 -16 1 -20 -21 -20 -14 0 -24 4 -21 9 4 5 -3
7 -14 4 -28 -8 -27 31 2 51 29 21 35 20 42 -4z m1263 5 c4 -4 2 -5 -4 -1 -7 4
-13 2 -13 -3 0 -6 5 -11 11 -11 5 0 8 -4 4 -10 -9 -15 -34 0 -28 18 3 10 1 13
-4 7 -7 -10 -16 -11 -40 -6 -5 1 -1 6 7 11 17 11 55 8 67 -5z m-1216 -36 c4
-18 2 -26 -6 -26 -8 0 -11 9 -9 24 3 15 1 22 -6 18 -5 -3 -10 -1 -10 5 0 21
24 4 31 -21z m1165 -59 c116 -101 126 -121 63 -135 -17 -4 -28 -9 -25 -12 3
-3 19 -1 35 5 25 9 31 8 31 -2 0 -23 -45 -45 -112 -55 -245 -38 -998 -40
-1153 -4 -73 17 -80 20 -81 43 0 17 23 54 68 109 37 46 65 88 61 94 -4 6 -1 7
6 3 7 -5 17 -1 24 8 11 14 54 16 342 18 182 2 402 4 490 6 l160 2 91 -80z m17
61 c5 -5 4 -18 -3 -31 l-12 -22 -29 28 c-16 15 -29 32 -29 37 0 11 60 1 73
-12z m-640 -328 c-13 -2 -35 -2 -50 0 -16 2 -5 4 22 4 28 0 40 -2 28 -4z m97
-3 c-8 -5 -19 -10 -25 -10 -5 0 -3 5 5 10 8 5 20 10 25 10 6 0 3 -5 -5 -10z"/>
<path d="M1990 2969 c0 -5 5 -7 10 -4 6 3 10 8 10 11 0 2 -4 4 -10 4 -5 0 -10
-5 -10 -11z"/>
<path d="M2016 2864 c-9 -35 -2 -40 12 -9 6 13 7 27 3 30 -5 2 -12 -7 -15 -21z"/>
<path d="M1900 2860 c0 -6 7 -10 15 -10 8 0 15 2 15 4 0 2 -7 6 -15 10 -8 3
-15 1 -15 -4z"/>
<path d="M2210 2856 c0 -9 5 -16 10 -16 6 0 10 4 10 9 0 6 -4 13 -10 16 -5 3
-10 -1 -10 -9z"/>
<path d="M1895 2830 l-30 -8 27 -1 c15 0 30 4 33 9 3 6 5 9 3 9 -2 -1 -16 -5
-33 -9z"/>
<path d="M2244 2823 c2 -9 8 -19 15 -21 10 -3 10 0 2 17 -14 25 -20 27 -17 4z"/>
<path d="M1837 2813 c-4 -3 -7 -15 -7 -25 0 -26 24 -17 28 10 3 21 -8 29 -21
15z"/>
<path d="M2024 2808 c1 -7 28 -30 59 -51 31 -21 57 -45 57 -54 0 -13 3 -13 15
-3 8 7 15 18 14 24 0 6 -3 5 -6 -2 -4 -10 -9 -10 -22 3 -9 9 -31 25 -49 36
-18 11 -30 24 -27 29 4 6 -1 7 -11 3 -13 -5 -15 -3 -9 7 5 8 4 11 -3 6 -5 -3
-13 -1 -15 4 -3 6 -4 5 -3 -2z"/>
<path d="M1980 2770 c-8 -5 -10 -10 -5 -10 6 0 17 5 25 10 8 5 11 10 5 10 -5
0 -17 -5 -25 -10z"/>
<path d="M1939 2743 c-13 -16 -12 -17 4 -4 16 13 21 21 13 21 -2 0 -10 -8 -17
-17z"/>
<path d="M1898 2673 c-15 -47 -15 -48 6 -51 11 -2 28 -10 37 -18 13 -12 20 -9
50 24 l34 37 -36 -33 c-40 -37 -58 -33 -28 7 26 35 12 81 -24 81 -20 0 -27 -8
-39 -47z m40 -21 c3 -17 -2 -22 -17 -22 -14 0 -21 6 -21 18 0 38 33 41 38 4z"/>
<path d="M2195 2698 c35 -19 45 -38 34 -67 -14 -35 -46 -68 -91 -94 -21 -11
-38 -24 -38 -29 0 -26 116 74 137 117 l14 30 -4 -27 c-2 -15 0 -25 4 -22 11 6
11 45 1 60 -10 15 -55 44 -67 44 -5 0 -1 -6 10 -12z"/>
<path d="M2110 2656 c0 -2 7 -7 16 -10 8 -3 12 -2 9 4 -6 10 -25 14 -25 6z"/>
<path d="M2141 2614 c0 -11 3 -14 6 -6 3 7 2 16 -1 19 -3 4 -6 -2 -5 -13z"/>
<path d="M2050 2600 c-8 -15 -8 -20 1 -18 6 2 14 -3 17 -11 3 -10 -1 -12 -17
-8 -18 4 -20 3 -10 -9 9 -12 15 -12 28 -2 36 29 39 43 11 58 -15 8 -21 6 -30
-10z"/>
<path d="M1850 2541 c4 -15 13 -38 19 -49 12 -22 49 -47 58 -39 2 3 -4 8 -14
11 -20 7 -53 55 -53 79 0 9 6 18 13 20 6 3 2 6 -10 6 -19 1 -21 -2 -13 -28z"/>
<path d="M2030 2514 c-14 -8 -18 -14 -10 -14 8 1 24 7 34 15 24 19 10 18 -24
-1z"/>
<path d="M2060 1810 c-22 -17 -23 -19 -7 -26 11 -4 25 0 37 11 40 36 13 49
-30 15z m30 -5 c-7 -8 -20 -15 -28 -15 -13 0 -12 3 4 15 25 19 40 19 24 0z"/>
<path d="M1365 1870 c3 -5 12 -7 20 -3 21 7 19 13 -6 13 -11 0 -18 -4 -14 -10z"/>
<path d="M1510 1871 c0 -6 4 -13 10 -16 6 -3 7 1 4 9 -7 18 -14 21 -14 7z"/>
<path d="M1790 1876 c0 -2 8 -10 18 -17 15 -13 16 -12 3 4 -13 16 -21 21 -21
13z"/>
<path d="M1446 1847 c3 -10 9 -15 12 -12 3 3 0 11 -7 18 -10 9 -11 8 -5 -6z"/>
<path d="M1543 1825 c0 -8 4 -12 9 -9 5 3 6 10 3 15 -9 13 -12 11 -12 -6z"/>
<path d="M1544 1774 c26 -34 58 -72 71 -84 22 -20 25 -21 25 -6 0 9 -4 15 -9
12 -5 -3 -24 13 -42 36 -60 74 -93 105 -45 42z"/>
<path d="M1490 1781 c5 -11 15 -23 21 -27 6 -3 3 5 -6 20 -20 30 -30 35 -15 7z"/>
<path d="M1605 1760 c10 -11 20 -20 23 -20 3 0 -3 9 -13 20 -10 11 -20 20 -23
20 -3 0 3 -9 13 -20z"/>
<path d="M1910 1740 c-10 -6 -11 -10 -2 -10 21 0 13 -18 -10 -23 l-23 -4 23
-2 c22 -1 37 18 30 38 -2 7 -8 7 -18 1z"/>
<path d="M1525 1730 c4 -7 2 -15 -5 -20 -8 -5 -7 -9 4 -13 19 -8 23 28 4 39
-7 5 -8 3 -3 -6z"/>
<path d="M1825 1729 c-17 -6 -17 -8 -2 -8 9 -1 17 -5 17 -10 0 -5 -8 -12 -17
-14 -10 -3 -2 -5 17 -6 24 0 30 2 21 8 -7 5 -11 13 -7 19 9 15 -6 21 -29 11z"/>
<path d="M1718 1723 c22 -9 13 -32 -15 -36 -16 -2 -3 -4 27 -4 30 0 45 2 33 4
-15 3 -23 12 -23 24 0 12 -7 19 -17 18 -11 0 -13 -3 -5 -6z"/>
<path d="M730 1700 c0 -11 2 -20 4 -20 2 0 6 9 9 20 3 11 1 20 -4 20 -5 0 -9
-9 -9 -20z"/>
<path d="M793 1703 c9 -2 25 -2 35 0 9 3 1 5 -18 5 -19 0 -27 -2 -17 -5z"/>
<path d="M850 1696 c0 -8 -8 -17 -17 -19 -14 -4 -12 -5 5 -6 16 -1 22 5 22 19
0 11 -2 20 -5 20 -3 0 -5 -6 -5 -14z"/>
<path d="M923 1693 c9 -2 25 -2 35 0 9 3 1 5 -18 5 -19 0 -27 -2 -17 -5z"/>
<path d="M1010 1689 c0 -5 5 -7 10 -4 6 3 10 8 10 11 0 2 -4 4 -10 4 -5 0 -10
-5 -10 -11z"/>
<path d="M1251 1683 c-1 -22 -3 -23 -122 -22 -67 0 -124 -2 -127 -5 -3 -3 52
-6 122 -6 102 0 128 3 132 15 3 8 4 20 1 27 -3 7 -6 3 -6 -9z"/>
<path d="M1328 1693 c12 -2 32 -2 45 0 12 2 2 4 -23 4 -25 0 -35 -2 -22 -4z"/>
<path d="M763 1683 c9 -2 23 -2 30 0 6 3 -1 5 -18 5 -16 0 -22 -2 -12 -5z"/>
<path d="M1165 1680 c3 -5 8 -10 11 -10 2 0 4 5 4 10 0 6 -5 10 -11 10 -5 0
-7 -4 -4 -10z"/>
<path d="M915 1670 l-30 -8 33 -1 c17 0 32 4 32 9 0 6 -1 9 -2 9 -2 -1 -16 -5
-33 -9z"/>
<path d="M695 1660 c19 -8 83 -14 74 -6 -2 2 -24 6 -49 9 -30 4 -38 3 -25 -3z"/>
<path d="M1373 1663 c26 -2 67 -2 90 0 23 2 2 3 -48 3 -49 0 -68 -1 -42 -3z"/>
<path d="M1888 1663 c7 -3 16 -2 19 1 4 3 -2 6 -13 5 -11 0 -14 -3 -6 -6z"/>
<path d="M1813 1653 c9 -2 25 -2 35 0 9 3 1 5 -18 5 -19 0 -27 -2 -17 -5z"/>
<path d="M798 1643 c12 -2 32 -2 45 0 12 2 2 4 -23 4 -25 0 -35 -2 -22 -4z"/>
<path d="M1708 1643 c12 -2 30 -2 40 0 9 3 -1 5 -23 4 -22 0 -30 -2 -17 -4z"/>
<path d="M928 1633 c18 -2 45 -2 60 0 15 2 0 4 -33 4 -33 0 -45 -2 -27 -4z"/>
<path d="M1568 1633 c17 -2 47 -2 65 0 17 2 3 4 -33 4 -36 0 -50 -2 -32 -4z"/>
<path d="M1163 1623 c59 -2 155 -2 215 0 59 1 10 3 -108 3 -118 0 -167 -2
-107 -3z"/>
<path d="M1027 3292 c-24 -26 -23 -46 2 -32 11 5 29 10 41 10 15 0 20 5 18 18
-5 24 -41 27 -61 4z"/>
<path d="M1232 3284 c-32 -22 -27 -29 18 -29 41 -1 50 11 28 33 -15 15 -19 15
-46 -4z"/>
<path d="M1671 3298 c2 -2 18 -14 34 -28 l30 -25 -24 28 c-14 15 -29 27 -34
27 -6 0 -8 -1 -6 -2z"/>
<path d="M1505 3260 c3 -5 14 -10 23 -10 15 0 15 2 2 10 -20 13 -33 13 -25 0z"/>
<path d="M1624 3235 c-3 -8 -4 -20 -2 -27 3 -7 7 -1 10 15 6 29 1 36 -8 12z"/>
<path d="M1078 3233 c18 -2 45 -2 60 0 15 2 0 4 -33 4 -33 0 -45 -2 -27 -4z"/>
<path d="M1018 3223 c7 -3 16 -2 19 1 4 3 -2 6 -13 5 -11 0 -14 -3 -6 -6z"/>
<path d="M1203 3223 c9 -2 25 -2 35 0 9 3 1 5 -18 5 -19 0 -27 -2 -17 -5z"/>
<path d="M960 3210 c-18 -12 -2 -12 25 0 13 6 15 9 5 9 -8 0 -22 -4 -30 -9z"/>
<path d="M1058 3213 c7 -3 16 -2 19 1 4 3 -2 6 -13 5 -11 0 -14 -3 -6 -6z"/>
<path d="M1132 3181 c11 -41 24 -59 15 -21 -3 14 -2 32 3 40 9 13 11 13 21 0
9 -13 10 -13 6 0 -2 8 -15 15 -29 16 -25 1 -25 0 -16 -35z"/>
<path d="M1275 3210 l20 -9 -20 -1 c-19 -1 -19 -2 2 -10 12 -5 24 -18 28 -30
4 -12 9 -19 12 -16 3 3 -2 17 -11 31 -12 18 -13 25 -4 25 9 0 8 3 -2 10 -8 5
-22 9 -30 9 -10 0 -8 -3 5 -9z"/>
<path d="M1731 3214 c0 -6 -14 -9 -30 -6 -37 5 -56 -24 -41 -62 10 -28 2 -33
-20 -13 -12 10 -12 9 -1 -5 7 -10 22 -18 32 -18 15 0 17 5 13 30 -6 26 -4 30
15 30 11 0 21 -5 21 -12 0 -9 3 -9 11 -1 6 6 9 23 6 39 -2 16 -5 24 -6 18z"/>
<path d="M1190 3199 c0 -5 5 -7 10 -4 6 3 10 8 10 11 0 2 -4 4 -10 4 -5 0 -10
-5 -10 -11z"/>
<path d="M1228 3203 c7 -3 16 -2 19 1 4 3 -2 6 -13 5 -11 0 -14 -3 -6 -6z"/>
<path d="M980 3190 c-17 -5 -19 -8 -7 -9 9 -1 17 -9 17 -19 0 -26 38 -58 64
-54 16 2 18 1 6 -7 -10 -7 -4 -9 22 -7 39 3 58 12 58 27 0 6 -7 3 -16 -5 -24
-24 -35 -19 -23 10 11 32 -11 74 -39 74 -29 -1 -55 -27 -49 -50 3 -12 1 -18
-5 -14 -5 4 -8 19 -6 35 3 16 4 29 4 28 -1 -1 -12 -5 -26 -9z m98 -47 c2 -15
-4 -22 -23 -25 -14 -3 -28 -1 -32 5 -4 6 -1 7 7 2 10 -6 12 -4 7 7 -6 17 12
40 28 35 5 -2 11 -13 13 -24z"/>
<path d="M1542 3193 c-13 -3 -26 -11 -28 -18 -7 -17 13 -55 28 -55 7 0 6 5 -2
15 -6 8 -9 19 -5 25 10 17 23 11 28 -12 3 -14 5 -9 6 15 0 20 0 36 -1 36 -2
-1 -13 -4 -26 -6z"/>
<path d="M1198 3179 c-10 -5 -18 -17 -18 -26 0 -13 3 -14 12 -5 16 16 41 15
35 0 -2 -7 -15 -13 -30 -13 -14 0 -29 -3 -33 -7 -4 -5 9 -8 28 -8 34 0 65 -20
51 -33 -3 -4 5 -7 18 -7 31 0 54 34 39 58 -10 15 -10 14 -5 -4 3 -13 1 -21 -7
-21 -7 0 -20 -2 -28 -4 -11 -3 -14 3 -12 24 3 26 -12 57 -27 57 -3 0 -14 -5
-23 -11z m87 -79 c-3 -5 -12 -10 -18 -10 -7 0 -6 4 3 10 19 12 23 12 15 0z"/>
<path d="M1621 3164 c0 -11 3 -14 6 -6 3 7 2 16 -1 19 -3 4 -6 -2 -5 -13z"/>
<path d="M1481 3160 c0 -8 8 -26 19 -40 11 -14 20 -20 20 -13 0 6 -5 15 -11
18 -6 4 -14 17 -19 29 -5 12 -9 15 -9 6z"/>
<path d="M1716 3131 c-4 -7 -5 -15 -2 -18 9 -9 19 4 14 18 -4 11 -6 11 -12 0z"/>
<path d="M1674 3058 c-4 -7 -3 -8 4 -4 22 14 12 -25 -13 -49 -27 -28 -22 -34
7 -8 15 14 18 14 18 1 0 -21 -74 -55 -85 -38 -3 5 3 11 12 13 15 4 15 5 -2 6
-11 1 -33 8 -50 17 -25 12 -22 8 15 -25 24 -23 49 -41 55 -41 5 0 3 5 -5 10
-13 9 -13 10 1 10 8 0 27 6 42 13 24 10 27 18 27 60 0 45 -11 60 -26 35z"/>
<path d="M1183 3053 c9 -2 23 -2 30 0 6 3 -1 5 -18 5 -16 0 -22 -2 -12 -5z"/>
<path d="M1069 3007 c16 -21 63 -47 83 -47 7 1 -3 8 -22 16 -19 8 -43 23 -55
32 -19 16 -19 16 -6 -1z"/>
<path d="M6053 2965 c-24 -30 -43 -56 -43 -59 0 -17 31 -1 74 38 34 30 47 48
43 60 -11 27 -30 17 -74 -39z"/>
<path d="M8407 3014 c-4 -4 -7 -44 -7 -88 0 -45 -3 -91 -6 -103 -5 -19 -8 -20
-20 -8 -8 7 -14 18 -14 23 0 16 -68 22 -103 9 -61 -23 -68 -32 -92 -118 -32
-110 -32 -169 -2 -205 l23 -27 37 18 c37 17 89 73 140 150 l27 40 0 -59 c0
-93 42 -158 70 -107 8 16 6 23 -10 34 -18 12 -20 25 -21 98 0 46 4 118 9 159
14 117 -2 212 -31 184z m-77 -209 c45 -23 47 -49 7 -108 -74 -111 -155 -177
-158 -129 -2 42 4 90 17 127 7 22 14 47 14 55 1 21 33 57 56 63 31 8 34 8 64
-8z"/>
<path d="M984 2989 c17 -13 26 -30 26 -48 0 -27 -2 -28 -97 -44 -54 -10 -108
-20 -120 -23 -17 -5 -23 -2 -23 9 0 9 -4 19 -10 22 -6 4 -7 -1 -3 -11 4 -10 0
-22 -10 -29 -14 -10 -15 -25 -6 -121 13 -146 19 -163 13 -34 -3 58 -8 113 -10
122 -6 20 25 30 164 54 89 15 123 15 167 0 11 -4 3 2 -17 14 -28 15 -38 27
-38 45 0 26 -31 65 -51 65 -7 0 0 -9 15 -21z"/>
<path d="M262 2977 c-19 -22 -52 -101 -51 -122 0 -11 6 -1 14 22 7 24 22 58
34 78 21 36 22 45 3 22z"/>
<path d="M560 2983 c8 -3 24 -10 35 -15 20 -9 20 -9 1 6 -11 9 -27 16 -35 15
-14 0 -14 -1 -1 -6z"/>
<path d="M674 2952 c3 -5 0 -13 -6 -15 -8 -3 -6 -6 5 -6 19 -1 23 14 5 25 -6
4 -8 3 -4 -4z"/>
<path d="M1670 2945 c-7 -9 -8 -15 -2 -15 5 0 12 7 16 15 3 8 4 15 2 15 -2 0
-9 -7 -16 -15z"/>
<path d="M1137 2939 c7 -7 15 -10 18 -7 3 3 -2 9 -12 12 -14 6 -15 5 -6 -5z"/>
<path d="M2686 2917 c-21 -15 -18 -54 5 -48 41 11 123 12 166 2 26 -6 58 -13
70 -15 56 -11 110 -54 99 -81 -6 -16 -124 -75 -161 -81 -11 -2 -31 -6 -44 -10
-24 -7 -24 -6 -17 47 14 119 13 134 -10 137 -26 4 -31 -13 -40 -119 -6 -79 -8
-84 -39 -92 -19 -5 -19 -5 3 -12 12 -4 22 -8 23 -9 0 0 3 -21 6 -46 7 -61 19
-80 48 -80 25 0 33 18 15 36 -15 15 -22 94 -7 98 94 28 135 40 147 46 8 4 29
14 45 21 37 16 85 59 85 75 0 17 -44 64 -59 64 -6 0 -11 6 -11 13 0 8 -6 14
-12 14 -7 0 -51 9 -98 21 -122 30 -191 36 -214 19z"/>
<path d="M1219 2898 c-10 -19 -9 -19 15 -3 30 20 31 22 10 22 -8 0 -20 -9 -25
-19z"/>
<path d="M500 2880 c-16 -11 -9 -13 31 -10 34 2 58 -25 29 -33 -27 -7 -26 -51
1 -78 l21 -21 -24 6 -23 6 23 -12 c19 -9 25 -9 32 2 6 10 4 17 -5 23 -8 4 -15
17 -15 29 0 16 5 19 25 16 20 -4 23 -2 15 12 -12 23 -68 70 -83 70 -7 0 -19
-5 -27 -10z"/>
<path d="M4463 2858 c-17 -18 -36 -53 -42 -78 -25 -92 -41 -186 -37 -213 4
-26 30 -56 48 -57 13 0 80 63 118 112 l37 46 7 -64 c8 -76 14 -94 31 -94 26 0
35 25 19 49 -13 19 -15 38 -10 104 4 45 11 98 17 118 10 40 3 71 -15 67 -6 -1
-21 3 -33 10 -13 7 -23 10 -23 8 0 -3 -19 1 -41 9 -23 8 -42 15 -43 15 -1 0
-16 -15 -33 -32z m130 -47 c18 -17 18 -19 0 -57 -10 -21 -23 -43 -29 -49 -5
-5 -30 -36 -54 -68 -38 -51 -66 -77 -84 -77 -22 0 31 229 60 261 15 16 26 19
54 14 19 -4 43 -14 53 -24z"/>
<path d="M7393 2858 c-17 -18 -36 -53 -42 -78 -25 -92 -41 -186 -37 -213 4
-26 30 -56 48 -57 13 0 80 63 118 112 l37 46 7 -64 c8 -76 14 -94 31 -94 26 0
35 25 19 49 -13 19 -15 38 -10 104 4 45 11 98 17 118 10 40 3 71 -15 67 -6 -1
-21 3 -33 10 -13 7 -23 10 -23 8 0 -3 -19 1 -41 9 -23 8 -42 15 -43 15 -1 0
-16 -15 -33 -32z m130 -47 c18 -17 18 -19 0 -57 -10 -21 -23 -43 -29 -49 -5
-5 -30 -36 -54 -68 -38 -51 -66 -77 -84 -77 -22 0 31 229 60 261 15 16 26 19
54 14 19 -4 43 -14 53 -24z"/>
<path d="M444 2858 l-19 -23 23 19 c21 18 27 26 19 26 -2 0 -12 -10 -23 -22z"/>
<path d="M3835 2861 c-6 -5 -16 -11 -24 -13 -18 -4 -39 -24 -73 -68 -77 -101
-77 -260 0 -260 45 0 148 76 210 155 12 15 22 26 23 24 2 -9 7 -47 14 -102 9
-70 -15 -174 -48 -205 -23 -22 -107 -46 -107 -31 0 5 -9 9 -20 9 -11 0 -29 9
-41 21 -21 21 -50 22 -56 2 -7 -20 49 -62 93 -69 85 -12 149 19 186 89 43 84
25 400 -24 431 -25 15 -33 1 -21 -38 18 -58 -24 -126 -129 -210 -34 -27 -54
-37 -75 -34 -26 3 -28 6 -26 49 3 117 111 240 174 200 25 -15 39 -14 39 4 0
26 -77 64 -95 46z"/>
<path d="M6855 2861 c-6 -5 -16 -11 -24 -13 -19 -4 -64 -47 -87 -83 -49 -73
-64 -187 -30 -224 41 -45 118 -11 217 97 l57 61 7 -45 c17 -113 2 -214 -38
-259 -23 -26 -103 -50 -113 -34 -3 5 -12 9 -20 9 -8 0 -23 9 -35 21 -11 11
-28 19 -37 17 -29 -6 -25 -35 10 -59 47 -34 149 -34 196 -1 73 53 94 170 67
377 -10 78 -29 125 -51 125 -13 0 -15 -8 -10 -43 8 -55 -10 -101 -63 -153
-135 -135 -208 -117 -150 37 31 85 118 154 152 120 16 -16 47 -14 47 4 0 26
-77 64 -95 46z"/>
<path d="M485 2840 c-3 -5 -1 -10 4 -10 6 0 11 5 11 10 0 6 -2 10 -4 10 -3 0
-8 -4 -11 -10z"/>
<path d="M4768 2839 c-2 -6 -1 -34 2 -62 3 -29 2 -79 -2 -113 -7 -62 -4 -131
6 -141 14 -15 40 15 94 109 76 130 102 164 113 146 5 -7 9 -52 9 -99 0 -197
36 -208 134 -41 38 65 44 71 49 50 4 -13 7 -34 7 -48 0 -14 9 -44 20 -67 18
-40 22 -43 58 -43 29 0 46 7 66 26 26 27 34 54 16 54 -6 0 -22 -11 -36 -25
-14 -14 -32 -25 -40 -25 -33 0 -56 106 -44 200 5 35 3 54 -6 61 -10 8 -26 -10
-68 -75 -30 -47 -62 -98 -70 -114 -8 -16 -22 -34 -30 -41 -14 -12 -16 -4 -16
78 0 167 -40 205 -116 108 -22 -29 -53 -73 -67 -99 -15 -26 -31 -49 -35 -52
-4 -2 -5 41 -4 95 3 68 0 104 -8 114 -15 18 -27 19 -32 4z"/>
<path d="M5409 2848 c-6 -15 -7 -306 -1 -316 13 -19 36 -5 56 31 21 40 95 163
120 200 11 17 23 24 28 19 5 -5 11 -58 13 -118 1 -60 6 -117 10 -127 15 -38
48 -14 111 81 l61 93 6 -50 c3 -27 14 -66 24 -87 15 -32 24 -40 51 -42 37 -4
75 17 92 48 18 34 -15 37 -43 4 -51 -59 -91 9 -86 146 3 50 0 87 -6 90 -5 3
-38 -38 -71 -90 -34 -52 -73 -108 -86 -124 l-25 -29 2 84 c2 104 -17 169 -50
169 -25 0 -48 -23 -99 -100 -19 -30 -45 -68 -55 -84 l-20 -29 4 103 c3 67 1
108 -6 117 -10 11 -27 18 -30 11z"/>
<path d="M3122 2827 c-7 -8 -9 -17 -5 -20 3 -4 9 -73 12 -155 6 -138 7 -147
26 -147 17 0 20 7 21 47 3 91 84 211 162 240 17 7 32 15 32 19 0 11 -31 20
-43 13 -55 -30 -110 -76 -131 -109 l-26 -39 -1 39 c-1 96 -21 143 -47 112z"/>
<path d="M3460 2823 c-35 -41 -60 -92 -60 -120 0 -16 -5 -34 -10 -39 -15 -15
-16 -114 -2 -140 16 -31 62 -37 109 -14 126 61 168 202 87 294 -33 37 -101 48
-124 19z m103 -57 c26 -40 32 -100 13 -140 -23 -48 -92 -93 -141 -92 -50 2 2
219 55 233 12 3 19 11 16 18 -13 36 31 21 57 -19z"/>
<path d="M4124 2827 c-3 -8 -3 -27 0 -43 2 -16 5 -81 5 -144 1 -125 9 -152 38
-134 13 8 17 21 15 43 -9 81 77 212 160 246 41 16 42 18 20 26 -15 6 -31 5
-45 -3 -40 -21 -110 -83 -129 -113 l-18 -30 -1 50 c-1 28 -4 63 -8 79 -7 32
-28 46 -37 23z"/>
<path d="M6053 2832 c-6 -4 -14 -36 -17 -72 -3 -36 -9 -97 -12 -136 -6 -64 -4
-74 14 -92 18 -18 25 -19 53 -9 33 12 119 82 119 97 0 22 -32 16 -58 -10 -29
-28 -77 -48 -89 -37 -3 3 1 59 10 124 17 137 14 157 -20 135z"/>
<path d="M6267 2813 c-3 -5 -5 -69 -6 -144 -1 -105 2 -139 13 -148 11 -9 18
-8 30 4 32 32 103 131 110 152 4 12 20 38 36 58 l29 36 6 -38 c7 -48 25 -143
31 -163 8 -30 41 -41 78 -26 33 14 86 72 86 94 0 21 -29 13 -46 -14 -9 -14
-29 -31 -45 -39 -27 -14 -28 -14 -38 18 -6 17 -15 64 -21 102 -13 84 -25 115
-43 115 -23 0 -63 -42 -92 -96 -15 -29 -43 -71 -62 -95 l-35 -44 7 96 c5 66 4
103 -4 118 -12 21 -26 27 -34 14z"/>
<path d="M7699 2713 c-1 -150 1 -176 15 -191 16 -16 29 -4 86 78 13 19 27 37
30 40 4 3 19 29 35 58 45 83 51 83 64 -5 23 -149 42 -176 105 -149 30 12 86
77 86 98 0 20 -37 5 -55 -21 -10 -17 -29 -34 -41 -40 -28 -12 -38 9 -54 115
-14 93 -24 124 -43 124 -22 0 -73 -51 -96 -95 -27 -52 -73 -117 -86 -122 -8
-2 -8 23 -3 81 9 90 0 136 -27 136 -12 0 -15 -18 -16 -107z"/>
<path d="M480 2796 c0 -2 7 -7 16 -10 8 -3 12 -2 9 4 -6 10 -25 14 -25 6z"/>
<path d="M617 2783 c-4 -3 -7 -11 -7 -17 0 -6 5 -5 12 2 6 6 9 14 7 17 -3 3
-9 2 -12 -2z"/>
<path d="M212 2760 c0 -14 2 -19 5 -12 2 6 2 18 0 25 -3 6 -5 1 -5 -13z"/>
<path d="M330 2760 c-6 -11 -8 -20 -6 -20 3 0 10 9 16 20 6 11 8 20 6 20 -3 0
-10 -9 -16 -20z"/>
<path d="M1030 2774 c-14 -3 -44 -7 -68 -10 -23 -3 -40 -10 -37 -15 4 -5 10
-7 15 -4 4 3 10 0 12 -5 2 -8 24 -8 68 -2 36 5 54 10 41 11 -13 0 -21 4 -17 9
4 4 85 10 179 13 l172 5 -170 1 c-93 0 -181 -1 -195 -3z m-13 -20 c-3 -3 -12
-4 -19 -1 -8 3 -5 6 6 6 11 1 17 -2 13 -5z"/>
<path d="M1406 2765 c4 -8 8 -15 10 -15 2 0 4 7 4 15 0 8 -4 15 -10 15 -5 0
-7 -7 -4 -15z"/>
<path d="M400 2761 c0 -5 12 -11 27 -14 26 -5 26 -4 8 9 -22 16 -35 18 -35 5z"/>
<path d="M1525 2760 c22 -5 57 -11 79 -15 21 -3 36 -8 34 -10 -2 -3 -31 0 -63
5 -78 13 -83 5 -6 -11 l61 -12 0 -117 c0 -64 -3 -185 -7 -268 l-6 -151 -326 2
-326 2 -6 35 c-6 34 -13 15 -9 -24 1 -11 -3 -15 -9 -12 -7 4 -11 -1 -11 -13 0
-21 3 -21 360 -21 l359 0 3 234 c2 129 0 232 -4 229 -5 -2 -8 5 -8 16 0 12 5
21 11 21 6 0 9 19 7 48 l-3 47 -55 12 c-30 6 -68 11 -85 11 -25 0 -24 -1 10
-8z m112 -417 c-3 -10 -5 -4 -5 12 0 17 2 24 5 18 2 -7 2 -21 0 -30z m-434
-180 c-45 -2 -122 -2 -170 0 -48 1 -11 3 82 3 94 0 133 -2 88 -3z m204 0 c-20
-2 -52 -2 -70 0 -17 2 0 4 38 4 39 0 53 -2 32 -4z m206 0 c-18 -2 -48 -2 -65
0 -18 2 -4 4 32 4 36 0 50 -2 33 -4z"/>
<path d="M1173 2753 c43 -2 110 -2 150 0 40 1 5 3 -78 3 -82 0 -115 -2 -72 -3z"/>
<path d="M890 2735 c0 -9 7 -18 15 -21 12 -5 15 -23 13 -83 l-2 -76 -7 70 c-4
41 -5 5 -2 -85 3 -120 7 -158 19 -166 7 -6 14 -26 14 -44 0 -18 3 -31 6 -27 3
3 3 57 -2 119 -6 84 -10 105 -15 83 -6 -21 -7 -13 -4 25 11 130 8 202 -6 211
-20 13 -29 11 -29 -6z m37 -337 c-2 -13 -4 -3 -4 22 0 25 2 35 4 23 2 -13 2
-33 0 -45z"/>
<path d="M466 2728 c3 -10 1 -18 -5 -18 -20 0 -12 -48 11 -64 21 -15 21 -16 3
-16 -17 0 -17 -2 -5 -10 10 -6 16 -6 18 0 2 6 10 10 19 10 13 0 13 2 -1 15 -8
8 -19 15 -25 15 -20 0 -22 20 -2 28 20 7 20 7 0 32 -11 15 -17 18 -13 8z"/>
<path d="M223 2670 c0 -53 1 -58 6 -25 4 22 11 46 15 54 6 9 5 12 -2 7 -6 -3
-12 2 -14 11 -2 10 -4 -11 -5 -47z"/>
<path d="M662 2659 c-2 -36 -26 -68 -53 -70 -16 -1 28 -16 52 -18 8 -1 24 6
35 14 17 13 16 14 -15 5 -42 -12 -50 -6 -27 19 12 13 16 30 13 53 l-4 33 -1
-36z"/>
<path d="M684 2661 c4 -5 2 -21 -4 -35 -6 -17 -6 -26 0 -26 6 0 10 9 10 21 0
12 4 17 11 13 8 -4 8 0 0 15 -7 11 -14 21 -17 21 -3 0 -3 -4 0 -9z"/>
<path d="M380 2657 c0 -3 12 -12 26 -22 15 -9 23 -12 20 -6 -7 11 -46 35 -46
28z"/>
<path d="M230 2590 c0 -16 62 -60 84 -60 13 0 35 9 50 21 24 18 30 20 56 9 17
-7 43 -25 58 -41 25 -25 28 -27 27 -10 -2 25 -24 53 -36 45 -6 -3 -24 3 -42
14 l-33 19 -28 -23 c-37 -32 -71 -30 -107 5 -16 16 -29 26 -29 21z m261 -57
c13 -16 12 -17 -3 -4 -10 7 -18 15 -18 17 0 8 8 3 21 -13z"/>
<path d="M760 2585 c0 -8 -12 -21 -27 -29 -16 -8 -23 -15 -18 -15 6 -1 17 4
25 9 11 7 17 4 22 -13 4 -16 6 -10 7 21 1 23 -1 42 -4 42 -3 0 -5 -7 -5 -15z"/>
<path d="M648 2523 c7 -3 16 -2 19 1 4 3 -2 6 -13 5 -11 0 -14 -3 -6 -6z"/>
<path d="M608 2513 c7 -3 16 -2 19 1 4 3 -2 6 -13 5 -11 0 -14 -3 -6 -6z"/>
<path d="M510 2460 c0 -17 -4 -19 -26 -14 -19 5 -25 4 -20 -5 5 -7 -4 -11 -28
-11 -20 0 -36 -3 -36 -8 0 -4 20 -7 45 -7 25 0 45 4 45 9 0 4 8 6 18 4 15 -4
17 0 14 23 -5 33 -12 38 -12 9z"/>
<path d="M568 2398 c2 -10 6 -18 7 -18 1 0 5 8 7 18 3 11 0 19 -7 19 -7 0 -10
-8 -7 -19z"/>
<path d="M467 2352 c-20 -21 -22 -32 -6 -32 5 0 8 4 5 8 -3 4 8 13 24 19 35
13 35 2 2 -35 -39 -44 -10 -101 44 -88 25 7 30 0 16 -21 -15 -24 -55 -20 -69
7 -7 15 -13 19 -13 10 0 -9 5 -21 12 -28 9 -9 9 -12 -3 -12 -24 0 -27 8 -19
46 4 19 4 37 -1 40 -5 3 -9 -11 -9 -30 0 -19 -4 -38 -10 -41 -5 -3 -10 0 -10
7 0 9 -2 10 -8 2 -4 -7 -16 -14 -27 -17 -13 -3 -8 -5 13 -6 39 -1 69 -15 95
-45 10 -12 15 -15 11 -7 -8 16 12 31 43 31 13 0 30 11 39 25 16 24 16 29 -2
83 -31 92 -87 129 -127 84z m73 -73 c0 -22 -25 -26 -33 -5 -6 16 12 38 25 30
4 -3 8 -14 8 -25z"/>
<path d="M922 2330 c0 -19 2 -27 5 -17 2 9 2 25 0 35 -3 9 -5 1 -5 -18z"/>
<path d="M384 2311 c3 -5 0 -11 -8 -14 -28 -11 2 -77 35 -77 24 0 26 46 3 78
-14 20 -42 33 -30 13z m31 -39 c0 -18 -20 -15 -23 4 -3 10 1 15 10 12 7 -3 13
-10 13 -16z"/>
<path d="M350 2236 c0 -19 3 -37 8 -40 4 -2 6 13 4 35 -5 48 -12 51 -12 5z"/>
<path d="M920 2244 c0 -8 5 -12 10 -9 6 3 10 10 10 16 0 5 -4 9 -10 9 -5 0
-10 -7 -10 -16z"/>
<path d="M558 2115 c2 -14 6 -25 7 -25 1 0 5 11 7 25 3 16 1 25 -7 25 -8 0
-10 -9 -7 -25z"/>
<path d="M8419 2027 c-116 -49 -185 -112 -234 -211 -100 -205 -8 -459 203
-559 63 -30 73 -32 182 -32 104 0 121 3 173 27 66 31 156 112 191 172 68 116
75 273 17 390 -42 85 -112 156 -198 198 -61 30 -77 33 -173 36 -92 2 -112 0
-161 -21z m303 -59 c79 -36 142 -98 181 -177 29 -59 32 -74 32 -156 0 -82 -3
-97 -32 -156 -39 -79 -102 -140 -181 -177 -50 -24 -70 -27 -157 -27 -89 0
-106 3 -156 27 -72 36 -141 105 -176 176 -25 51 -28 67 -28 162 0 92 3 111 24
150 53 99 114 154 214 191 76 28 202 22 279 -13z"/>
<path d="M8353 1735 c-40 -40 -42 -78 -5 -83 16 -3 22 2 22 16 0 24 30 52 57
52 24 0 53 -30 53 -54 0 -12 7 -16 23 -14 65 9 -6 118 -78 118 -29 0 -45 -8
-72 -35z"/>
<path d="M8664 1760 c-50 -20 -77 -110 -33 -110 13 0 23 10 31 30 17 51 92 50
100 -2 2 -15 11 -24 26 -26 19 -3 22 1 22 28 0 66 -77 108 -146 80z"/>
<path d="M8382 1538 c-17 -17 -15 -23 20 -63 67 -77 173 -99 263 -55 83 40
122 113 69 126 -22 6 -32 1 -58 -29 -37 -43 -64 -57 -106 -57 -42 0 -98 27
-112 54 -19 37 -53 47 -76 24z"/>
<path d="M5535 1876 c-13 -13 -31 -50 -40 -82 -9 -33 -20 -69 -26 -82 -5 -13
-9 -39 -9 -58 0 -28 -4 -35 -17 -33 -10 1 -42 1 -70 0 -39 -1 -53 -5 -53 -16
0 -23 35 -35 85 -29 l47 5 -8 -43 c-12 -66 -6 -278 9 -328 7 -27 19 -45 27
-45 17 0 17 10 1 115 -14 85 -5 286 12 297 6 4 25 8 42 10 16 2 45 5 63 7 81
9 45 34 -44 31 -56 -2 -64 -1 -60 14 3 9 10 36 16 61 20 79 34 114 54 138 26
30 63 29 78 -3 6 -14 15 -25 20 -25 18 0 19 30 3 57 -14 24 -24 29 -62 31 -35
1 -49 -3 -68 -22z"/>
<path d="M4330 1868 c0 -7 -18 -33 -40 -58 -39 -43 -48 -60 -32 -60 20 1 112
80 112 96 0 18 -40 39 -40 22z"/>
<path d="M6993 1815 c-24 -30 -43 -56 -43 -59 0 -17 31 -1 74 38 34 30 47 48
43 60 -11 27 -30 17 -74 -39z"/>
<path d="M7453 1858 c-6 -7 -11 -51 -12 -98 -2 -91 -11 -113 -32 -82 -19 26
-64 35 -108 21 -54 -17 -69 -36 -90 -108 -39 -135 -38 -199 4 -227 21 -14 27
-14 52 0 35 18 94 81 134 144 l29 46 0 -52 c0 -86 38 -155 66 -118 15 21 8 46
-14 46 -13 0 -14 17 -7 143 14 238 8 323 -22 285z m-57 -222 c19 -19 20 -24 8
-48 -44 -86 -144 -194 -170 -184 -13 5 -15 17 -11 59 2 28 7 59 9 67 3 8 10
33 16 56 23 81 94 105 148 50z"/>
<path d="M4046 1698 c-12 -252 -11 -290 12 -317 l17 -22 51 26 c58 29 99 68
89 85 -4 7 -11 8 -18 2 -37 -30 -106 -61 -113 -51 -4 7 -6 55 -4 108 8 251 6
306 -11 309 -14 2 -17 -17 -23 -140z"/>
<path d="M4807 1834 c-3 -3 -2 -17 3 -30 18 -47 22 -151 10 -263 -13 -128 -8
-184 18 -179 9 2 38 48 68 107 51 100 108 176 126 165 4 -3 8 -60 8 -128 0
-131 10 -166 45 -153 12 5 15 12 9 25 -5 9 -11 73 -14 142 -3 69 -9 133 -14
143 -14 30 -55 20 -95 -22 -47 -50 -72 -87 -94 -135 -9 -21 -19 -37 -21 -35
-2 2 -1 45 3 94 11 124 3 236 -16 258 -17 18 -26 21 -36 11z"/>
<path d="M2870 1769 c-36 -5 -73 -6 -82 -3 -10 3 -18 1 -18 -4 0 -5 -11 -14
-25 -20 -29 -13 -33 -32 -7 -39 14 -3 17 -12 14 -46 -3 -23 -9 -48 -14 -54 -6
-7 -7 -25 -3 -40 4 -16 9 -46 12 -67 18 -152 154 -174 286 -48 20 20 37 40 37
44 0 15 -29 8 -47 -11 -10 -10 -40 -33 -67 -50 -94 -59 -146 -33 -161 82 l-6
46 43 5 c24 3 72 8 108 11 112 10 148 17 153 29 5 12 -42 13 -233 5 -43 -2
-64 0 -63 8 1 6 3 27 5 47 1 20 7 41 13 46 15 13 135 30 212 30 68 0 86 11 47
29 -28 12 -107 13 -204 0z"/>
<path d="M6795 1750 c-4 -11 -31 -47 -61 -79 -59 -64 -115 -91 -187 -91 l-39
0 2 68 c4 99 3 102 -25 102 l-25 0 0 -159 c0 -87 -3 -179 -6 -205 -5 -32 -3
-46 5 -46 20 0 41 66 41 130 0 73 9 76 76 20 27 -23 79 -56 117 -75 107 -55
199 -45 237 25 17 32 -6 31 -39 0 -44 -42 -93 -41 -175 5 -34 19 -77 48 -95
64 l-34 30 65 31 c36 17 83 48 105 68 46 43 87 107 78 122 -10 17 -33 11 -40
-10z"/>
<path d="M3755 1711 c-6 -5 -16 -11 -24 -13 -18 -4 -39 -24 -73 -68 -77 -101
-77 -260 0 -260 45 0 148 76 210 155 12 15 22 26 23 24 2 -9 7 -47 14 -102 9
-70 -15 -174 -48 -205 -23 -22 -107 -46 -107 -31 0 5 -9 9 -20 9 -11 0 -29 9
-41 21 -21 21 -50 22 -56 2 -7 -20 49 -62 93 -69 85 -12 149 19 186 89 43 84
25 400 -24 431 -25 15 -33 1 -21 -38 18 -58 -24 -126 -129 -210 -34 -27 -54
-37 -75 -34 -26 3 -28 6 -26 49 3 117 111 240 174 200 25 -15 39 -14 39 4 0
26 -77 64 -95 46z"/>
<path d="M4562 1684 c-65 -32 -85 -66 -71 -118 11 -39 37 -57 144 -97 82 -31
69 -53 -41 -71 -62 -9 -69 -8 -84 9 -19 23 -39 23 -54 1 -18 -29 6 -40 98 -43
100 -4 157 13 175 52 16 34 -17 64 -100 92 -36 12 -75 28 -87 37 -26 18 -29
55 -4 76 29 26 85 46 107 37 33 -13 45 -10 45 11 0 21 -28 40 -57 40 -10 -1
-42 -12 -71 -26z"/>
<path d="M7669 1684 c-78 -35 -97 -79 -60 -139 14 -23 38 -38 104 -64 48 -18
87 -37 87 -42 0 -15 -54 -36 -111 -43 -47 -5 -60 -3 -79 14 -27 23 -32 24 -48
8 -40 -40 84 -71 193 -48 38 8 61 19 75 37 30 38 11 59 -90 100 -97 39 -110
48 -110 78 0 40 85 91 125 74 33 -13 45 -10 45 11 0 21 -28 40 -57 39 -10 0
-43 -12 -74 -25z"/>
<path d="M5780 1690 c-55 -11 -97 -69 -108 -145 -2 -16 -8 -37 -13 -46 -13
-25 -11 -111 4 -130 20 -27 60 -30 104 -9 84 40 142 132 130 206 -7 41 -53
114 -73 114 -7 0 -14 4 -16 8 -1 4 -14 5 -28 2z m57 -77 c36 -53 24 -142 -24
-185 -45 -39 -92 -53 -120 -35 -30 19 25 203 66 222 12 5 21 18 21 28 0 14 4
16 19 7 11 -5 28 -22 38 -37z"/>
<path d="M4290 1682 c-9 -4 -16 -16 -16 -27 0 -11 -3 -70 -8 -132 -8 -123 -1
-153 38 -153 26 0 110 53 131 83 13 19 13 22 -1 30 -11 6 -20 3 -30 -12 -17
-23 -65 -51 -89 -51 -19 0 -19 41 -1 160 16 106 13 118 -24 102z"/>
<path d="M5970 1675 c-7 -8 -9 -23 -5 -32 4 -10 9 -74 11 -143 5 -142 8 -153
31 -148 12 2 17 15 18 55 3 97 78 204 163 235 35 13 40 23 16 32 -30 12 -120
-53 -173 -124 l-19 -25 0 62 c0 93 -14 122 -42 88z"/>
<path d="M6993 1682 c-6 -4 -14 -36 -17 -72 -3 -36 -9 -97 -12 -136 -6 -64 -4
-74 14 -92 18 -18 25 -19 53 -9 33 12 119 82 119 97 0 22 -32 16 -58 -10 -29
-28 -77 -48 -89 -37 -3 3 1 59 10 124 17 137 14 157 -20 135z"/>
<path d="M3170 1638 c-1 -18 -3 -80 -6 -138 -4 -81 -2 -110 9 -125 14 -18 16
-18 47 16 34 36 72 91 103 149 21 39 46 70 57 70 3 0 12 -39 18 -87 14 -103
35 -140 77 -135 15 2 38 11 50 20 23 17 55 66 55 83 0 19 -30 8 -46 -17 -9
-14 -29 -31 -44 -39 -27 -14 -27 -13 -39 23 -6 20 -15 67 -20 103 -10 73 -25
109 -44 109 -18 0 -77 -59 -77 -76 0 -8 -4 -14 -10 -14 -5 0 -10 -6 -10 -12 0
-14 -48 -87 -73 -112 -14 -15 -15 -7 -10 84 4 72 2 104 -7 115 -20 24 -30 18
-30 -17z"/>
<path d="M1095 1550 c-3 -5 1 -10 9 -10 9 0 16 5 16 10 0 6 -4 10 -9 10 -6 0
-13 -4 -16 -10z"/>
<path d="M768 1533 c6 -2 18 -2 25 0 6 3 1 5 -13 5 -14 0 -19 -2 -12 -5z"/>
<path d="M938 1533 c7 -3 16 -2 19 1 4 3 -2 6 -13 5 -11 0 -14 -3 -6 -6z"/>
</g>
</svg>
